{"glyphs":{"0":{"ha":1389,"x_min":174,"x_max":1042,"o":"m 347 0 l 347 174 l 174 174 l 174 1042 l 347 1042 l 347 1215 l 868 1215 l 868 1042 l 1042 1042 l 1042 174 l 868 174 l 868 0 l 347 0 m 868 868 l 868 1042 l 347 1042 l 347 521 l 521 521 l 521 694 l 694 694 l 694 868 l 868 868 m 868 174 l 868 694 l 694 694 l 694 521 l 521 521 l 521 347 l 347 347 l 347 174 l 868 174 z "},"1":{"ha":1389,"x_min":347,"x_max":868,"o":"m 347 0 l 347 174 l 521 174 l 521 868 l 347 868 l 347 1042 l 521 1042 l 521 1215 l 694 1215 l 694 174 l 868 174 l 868 0 l 347 0 z "},"2":{"ha":1389,"x_min":174,"x_max":1042,"o":"m 347 1042 l 347 868 l 174 868 l 174 1042 l 347 1042 m 868 1215 l 868 1042 l 347 1042 l 347 1215 l 868 1215 m 1042 1042 l 1042 694 l 868 694 l 868 1042 l 1042 1042 m 868 694 l 868 521 l 521 521 l 521 694 l 868 694 m 521 521 l 521 347 l 347 347 l 347 521 l 521 521 m 174 347 l 347 347 l 347 174 l 1042 174 l 1042 0 l 174 0 l 174 347 z "},"3":{"ha":1389,"x_min":174,"x_max":1042,"o":"m 174 1215 l 1042 1215 l 1042 868 l 868 868 l 868 1042 l 174 1042 l 174 1215 m 694 868 l 694 694 l 521 694 l 521 521 l 868 521 l 868 868 l 694 868 m 1042 521 l 1042 174 l 868 174 l 868 521 l 1042 521 m 868 174 l 868 0 l 347 0 l 347 174 l 868 174 m 347 347 l 347 174 l 174 174 l 174 347 l 347 347 z "},"4":{"ha":1389,"x_min":174,"x_max":1042,"o":"m 868 1215 l 694 1215 l 694 1042 l 521 1042 l 521 868 l 694 868 l 694 521 l 347 521 l 347 694 l 174 694 l 174 347 l 694 347 l 694 0 l 868 0 l 868 347 l 1042 347 l 1042 521 l 868 521 l 868 1215 m 521 868 l 521 694 l 347 694 l 347 868 l 521 868 z "},"5":{"ha":1389,"x_min":174,"x_max":1042,"o":"m 174 1215 l 174 694 l 868 694 l 868 868 l 347 868 l 347 1042 l 1042 1042 l 1042 1215 l 174 1215 m 1042 694 l 1042 174 l 868 174 l 868 694 l 1042 694 m 868 174 l 868 0 l 347 0 l 347 174 l 868 174 m 347 347 l 347 174 l 174 174 l 174 347 l 347 347 z "},"6":{"ha":1389,"x_min":174,"x_max":1042,"o":"m 868 174 l 868 0 l 347 0 l 347 174 l 868 174 m 1042 521 l 1042 174 l 868 174 l 868 521 l 1042 521 m 347 521 l 868 521 l 868 694 l 347 694 l 347 868 l 174 868 l 174 174 l 347 174 l 347 521 m 521 1042 l 521 868 l 347 868 l 347 1042 l 521 1042 m 1042 1215 l 1042 1042 l 521 1042 l 521 1215 l 1042 1215 z "},"7":{"ha":1389,"x_min":174,"x_max":1042,"o":"m 174 1215 l 1042 1215 l 1042 868 l 868 868 l 868 1042 l 174 1042 l 174 1215 m 868 868 l 868 694 l 694 694 l 694 868 l 868 868 m 694 694 l 694 521 l 521 521 l 521 694 l 694 694 m 521 521 l 521 0 l 347 0 l 347 521 l 521 521 z "},"8":{"ha":1389,"x_min":174,"x_max":1042,"o":"m 347 0 l 347 174 l 174 174 l 174 521 l 347 521 l 347 694 l 174 694 l 174 1042 l 347 1042 l 347 1215 l 868 1215 l 868 1042 l 1042 1042 l 1042 694 l 868 694 l 868 521 l 1042 521 l 1042 174 l 868 174 l 868 0 l 347 0 m 347 694 l 868 694 l 868 1042 l 347 1042 l 347 694 m 347 174 l 868 174 l 868 521 l 347 521 l 347 174 z "},"9":{"ha":1389,"x_min":174,"x_max":1042,"o":"m 694 174 l 694 0 l 174 0 l 174 174 l 694 174 m 868 347 l 868 174 l 694 174 l 694 347 l 868 347 m 868 347 l 1042 347 l 1042 1042 l 868 1042 l 868 694 l 347 694 l 347 521 l 868 521 l 868 347 m 868 1215 l 868 1042 l 347 1042 l 347 1215 l 868 1215 m 347 1042 l 347 694 l 174 694 l 174 1042 l 347 1042 z "}," ":{"ha":1389,"x_min":0,"x_max":0,"o":""},"!":{"ha":1389,"x_min":521,"x_max":694,"o":"m 694 1215 l 694 347 l 521 347 l 521 1215 l 694 1215 m 694 174 l 694 0 l 521 0 l 521 174 l 694 174 z "},"\"":{"ha":1389,"x_min":347,"x_max":868,"o":"m 521 1215 l 521 694 l 347 694 l 347 1215 l 521 1215 m 868 1215 l 868 694 l 694 694 l 694 1215 l 868 1215 z "},"#":{"ha":1389,"x_min":174,"x_max":1042,"o":"m 347 0 l 347 347 l 174 347 l 174 521 l 347 521 l 347 694 l 174 694 l 174 868 l 347 868 l 347 1215 l 521 1215 l 521 868 l 694 868 l 694 1215 l 868 1215 l 868 868 l 1042 868 l 1042 694 l 868 694 l 868 521 l 1042 521 l 1042 347 l 868 347 l 868 0 l 694 0 l 694 347 l 521 347 l 521 0 l 347 0 m 694 521 l 694 694 l 521 694 l 521 521 l 694 521 z "},"$":{"ha":1389,"x_min":174,"x_max":1042,"o":"m 694 174 l 694 0 l 521 0 l 521 174 l 174 174 l 174 347 l 521 347 l 521 521 l 347 521 l 347 694 l 174 694 l 174 868 l 347 868 l 347 1042 l 347 1042 l 347 1042 l 521 1042 l 521 1215 l 694 1215 l 694 1042 l 1042 1042 l 1042 868 l 694 868 l 694 694 l 868 694 l 868 521 l 1042 521 l 1042 347 l 868 347 l 868 174 l 694 174 m 521 694 l 521 868 l 347 868 l 347 694 l 521 694 m 868 347 l 868 521 l 694 521 l 694 347 l 868 347 z "},"%":{"ha":1389,"x_min":0,"x_max":1215,"o":"m 174 174 l 174 347 l 347 347 l 347 521 l 521 521 l 521 694 l 694 694 l 694 868 l 868 868 l 868 1042 l 1042 1042 l 1042 868 l 868 868 l 868 694 l 694 694 l 694 521 l 521 521 l 521 347 l 347 347 l 347 174 l 174 174 m 0 868 l 0 1215 l 347 1215 l 347 868 l 0 868 m 1215 347 l 1215 0 l 868 0 l 868 347 l 1215 347 z "},"&":{"ha":1389,"x_min":174,"x_max":1042,"o":"m 347 1042 l 347 694 l 174 694 l 174 1042 l 347 1042 m 521 1215 l 521 1042 l 347 1042 l 347 1215 l 521 1215 m 694 1042 l 694 694 l 521 694 l 521 1042 l 694 1042 m 521 694 l 521 521 l 347 521 l 347 694 l 521 694 m 347 521 l 347 174 l 174 174 l 174 521 l 347 521 m 694 174 l 694 0 l 347 0 l 347 174 l 694 174 m 868 347 l 868 174 l 694 174 l 694 347 l 868 347 m 1042 521 l 1042 347 l 868 347 l 868 521 l 1042 521 m 694 521 l 694 347 l 521 347 l 521 521 l 694 521 m 1042 174 l 1042 0 l 868 0 l 868 174 l 1042 174 z "},"'":{"ha":1389,"x_min":521,"x_max":694,"o":"m 694 1215 l 694 694 l 521 694 l 521 1215 l 694 1215 z "},"(":{"ha":1389,"x_min":347,"x_max":868,"o":"m 521 868 l 521 347 l 347 347 l 347 868 l 521 868 m 694 1042 l 694 868 l 521 868 l 521 1042 l 694 1042 m 868 1215 l 868 1042 l 694 1042 l 694 1215 l 868 1215 m 694 347 l 694 174 l 521 174 l 521 347 l 694 347 m 868 174 l 868 0 l 694 0 l 694 174 l 868 174 z "},")":{"ha":1389,"x_min":521,"x_max":1042,"o":"m 694 1215 l 694 1042 l 521 1042 l 521 1215 l 694 1215 m 868 1042 l 868 868 l 694 868 l 694 1042 l 868 1042 m 1042 868 l 1042 347 l 868 347 l 868 868 l 1042 868 m 868 347 l 868 174 l 694 174 l 694 347 l 868 347 m 694 174 l 694 0 l 521 0 l 521 174 l 694 174 z "},"*":{"ha":1389,"x_min":174,"x_max":1042,"o":"m 694 1215 l 694 0 l 521 0 l 521 1215 l 694 1215 m 868 868 l 868 694 l 347 694 l 347 868 l 868 868 m 868 521 l 868 347 l 347 347 l 347 521 l 868 521 m 347 1042 l 347 868 l 174 868 l 174 1042 l 347 1042 m 1042 1042 l 1042 868 l 868 868 l 868 1042 l 1042 1042 m 174 174 l 174 347 l 347 347 l 347 174 l 174 174 m 1042 347 l 1042 174 l 868 174 l 868 347 l 1042 347 z "},"+":{"ha":1389,"x_min":174,"x_max":1042,"o":"m 174 694 l 521 694 l 521 1042 l 694 1042 l 694 694 l 1042 694 l 1042 521 l 694 521 l 694 174 l 521 174 l 521 521 l 174 521 l 174 694 z "},",":{"ha":1389,"x_min":521,"x_max":868,"o":"m 694 174 l 694 0 l 521 0 l 521 174 l 694 174 m 868 521 l 868 174 l 694 174 l 694 521 l 868 521 z "},"-":{"ha":1389,"x_min":174,"x_max":1042,"o":"m 174 521 l 174 694 l 1042 694 l 1042 521 l 174 521 z "},".":{"ha":1389,"x_min":521,"x_max":694,"o":"m 521 174 l 521 0 l 694 0 l 694 174 l 521 174 z "},"/":{"ha":1389,"x_min":174,"x_max":1042,"o":"m 174 174 l 174 347 l 347 347 l 347 521 l 521 521 l 521 694 l 694 694 l 694 868 l 868 868 l 868 1042 l 1042 1042 l 1042 868 l 868 868 l 868 694 l 694 694 l 694 521 l 521 521 l 521 347 l 347 347 l 347 174 l 174 174 z "},":":{"ha":1389,"x_min":521,"x_max":694,"o":"m 521 868 l 694 868 l 694 694 l 521 694 l 521 868 m 521 521 l 694 521 l 694 347 l 521 347 l 521 521 z "},";":{"ha":1389,"x_min":347,"x_max":694,"o":"m 521 868 l 521 694 l 694 694 l 694 868 l 521 868 m 694 521 l 694 174 l 521 174 l 521 521 l 694 521 m 521 174 l 521 0 l 347 0 l 347 174 l 521 174 z "},"<":{"ha":1389,"x_min":174,"x_max":868,"o":"m 694 1042 l 521 1042 l 521 868 l 347 868 l 347 694 l 174 694 l 174 521 l 347 521 l 347 347 l 521 347 l 521 174 l 694 174 l 694 347 l 521 347 l 521 521 l 347 521 l 347 694 l 521 694 l 521 868 l 694 868 l 694 1042 m 868 1215 l 868 1042 l 694 1042 l 694 1215 l 868 1215 m 868 174 l 868 0 l 694 0 l 694 174 l 868 174 z "},"=":{"ha":1389,"x_min":174,"x_max":1042,"o":"m 174 521 l 1042 521 l 1042 347 l 174 347 l 174 521 m 174 694 l 174 868 l 1042 868 l 1042 694 l 174 694 z "},">":{"ha":1389,"x_min":347,"x_max":1042,"o":"m 521 1042 l 521 868 l 694 868 l 694 694 l 868 694 l 868 521 l 694 521 l 694 347 l 521 347 l 521 174 l 694 174 l 694 347 l 868 347 l 868 521 l 1042 521 l 1042 694 l 868 694 l 868 868 l 694 868 l 694 1042 l 521 1042 m 521 1215 l 521 1042 l 347 1042 l 347 1215 l 521 1215 m 521 174 l 521 0 l 347 0 l 347 174 l 521 174 z "},"?":{"ha":1389,"x_min":174,"x_max":1042,"o":"m 521 174 l 694 174 l 694 0 l 521 0 l 521 174 m 694 694 l 694 347 l 521 347 l 521 694 l 694 694 m 868 868 l 868 694 l 694 694 l 694 868 l 868 868 m 1042 1042 l 1042 868 l 868 868 l 868 1042 l 1042 1042 m 868 1215 l 868 1042 l 347 1042 l 347 1215 l 868 1215 m 347 1042 l 347 868 l 174 868 l 174 1042 l 347 1042 z "},"@":{"ha":1389,"x_min":174,"x_max":1042,"o":"m 868 1215 l 868 1042 l 347 1042 l 347 1215 l 868 1215 m 347 1042 l 347 174 l 174 174 l 174 1042 l 347 1042 m 1042 174 l 1042 0 l 347 0 l 347 174 l 1042 174 m 868 1042 l 1042 1042 l 1042 521 l 868 521 l 868 347 l 521 347 l 521 868 l 694 868 l 694 694 l 868 694 l 868 1042 z "},"A":{"ha":1389,"x_min":174,"x_max":1042,"o":"m 694 1215 l 694 1042 l 521 1042 l 521 1215 l 694 1215 m 521 1042 l 521 868 l 347 868 l 347 1042 l 521 1042 m 868 1042 l 868 868 l 694 868 l 694 1042 l 868 1042 m 347 868 l 347 521 l 868 521 l 868 868 l 1042 868 l 1042 0 l 868 0 l 868 347 l 347 347 l 347 0 l 174 0 l 174 868 l 347 868 z "},"B":{"ha":1389,"x_min":174,"x_max":1042,"o":"m 866 174 l 866 521 l 347 521 l 347 174 l 866 174 m 866 698 l 866 1042 l 347 1042 l 347 698 l 866 698 m 174 0 l 174 1215 l 868 1215 l 868 1042 l 1042 1042 l 1042 694 l 868 694 l 868 521 l 1042 521 l 1042 174 l 868 174 l 868 0 l 174 0 z "},"C":{"ha":1389,"x_min":174,"x_max":1042,"o":"m 868 1215 l 868 1042 l 347 1042 l 347 1215 l 868 1215 m 1042 1042 l 1042 868 l 868 868 l 868 1042 l 1042 1042 m 347 1042 l 347 174 l 174 174 l 174 1042 l 347 1042 m 868 174 l 868 0 l 347 0 l 347 174 l 868 174 m 1042 347 l 1042 174 l 868 174 l 868 347 l 1042 347 z "},"D":{"ha":1389,"x_min":174,"x_max":1042,"o":"m 174 0 l 174 1215 l 868 1215 l 868 1042 l 1042 1042 l 1042 174 l 868 174 l 868 0 l 174 0 m 868 174 l 868 1042 l 347 1042 l 347 174 l 868 174 z "},"E":{"ha":1389,"x_min":174,"x_max":1042,"o":"m 174 1215 l 174 0 l 1042 0 l 1042 174 l 347 174 l 347 521 l 868 521 l 868 694 l 347 694 l 347 1042 l 1042 1042 l 1042 1215 l 174 1215 z "},"F":{"ha":1389,"x_min":174,"x_max":1042,"o":"m 174 1215 l 174 0 l 347 0 l 347 521 l 868 521 l 868 694 l 347 694 l 347 1042 l 1042 1042 l 1042 1215 l 174 1215 z "},"G":{"ha":1389,"x_min":174,"x_max":1042,"o":"m 1042 1215 l 1042 1042 l 347 1042 l 347 1215 l 1042 1215 m 347 1042 l 347 174 l 174 174 l 174 1042 l 347 1042 m 347 174 l 347 0 l 1042 0 l 1042 521 l 694 521 l 694 347 l 868 347 l 868 174 l 347 174 z "},"H":{"ha":1389,"x_min":174,"x_max":1042,"o":"m 174 0 l 174 1215 l 347 1215 l 347 694 l 868 694 l 868 1215 l 1042 1215 l 1042 0 l 868 0 l 868 521 l 347 521 l 347 0 l 174 0 z "},"I":{"ha":1389,"x_min":347,"x_max":868,"o":"m 347 1215 l 347 1042 l 521 1042 l 521 174 l 347 174 l 347 0 l 868 0 l 868 174 l 694 174 l 694 1042 l 868 1042 l 868 1215 l 347 1215 z "},"J":{"ha":1389,"x_min":174,"x_max":1042,"o":"m 347 347 l 347 174 l 174 174 l 174 347 l 347 347 m 868 174 l 868 0 l 347 0 l 347 174 l 868 174 m 868 174 l 868 1215 l 1042 1215 l 1042 174 l 868 174 z "},"K":{"ha":1389,"x_min":174,"x_max":1042,"o":"m 174 0 l 174 1215 l 347 1215 l 347 694 l 521 694 l 521 868 l 694 868 l 694 1042 l 868 1042 l 868 1215 l 1042 1215 l 1042 1042 l 868 1042 l 868 868 l 694 868 l 694 694 l 521 694 l 521 521 l 694 521 l 694 347 l 868 347 l 868 174 l 1042 174 l 1042 0 l 868 0 l 868 174 l 694 174 l 694 347 l 521 347 l 521 521 l 347 521 l 347 0 l 174 0 z "},"L":{"ha":1389,"x_min":174,"x_max":1042,"o":"m 174 1215 l 174 0 l 1042 0 l 1042 174 l 347 174 l 347 1215 l 174 1215 z "},"M":{"ha":1389,"x_min":174,"x_max":1042,"o":"m 174 1215 l 174 0 l 347 0 l 347 868 l 521 868 l 521 1042 l 347 1042 l 347 1215 l 174 1215 m 694 868 l 694 521 l 521 521 l 521 868 l 694 868 m 868 1042 l 694 1042 l 694 868 l 868 868 l 868 0 l 1042 0 l 1042 1215 l 868 1215 l 868 1042 z "},"N":{"ha":1389,"x_min":174,"x_max":1042,"o":"m 174 1215 l 174 0 l 347 0 l 347 694 l 521 694 l 521 868 l 347 868 l 347 1215 l 174 1215 m 694 694 l 694 521 l 521 521 l 521 694 l 694 694 m 694 521 l 694 347 l 868 347 l 868 0 l 1042 0 l 1042 1215 l 868 1215 l 868 521 l 694 521 z "},"O":{"ha":1389,"x_min":174,"x_max":1042,"o":"m 347 0 l 347 174 l 174 174 l 174 1042 l 347 1042 l 347 1215 l 868 1215 l 868 1042 l 1042 1042 l 1042 174 l 868 174 l 868 0 l 347 0 m 347 174 l 868 174 l 868 1042 l 347 1042 l 347 174 z "},"P":{"ha":1389,"x_min":174,"x_max":1042,"o":"m 174 0 l 174 1215 l 868 1215 l 868 1042 l 1042 1042 l 1042 694 l 868 694 l 868 521 l 347 521 l 347 0 l 174 0 m 868 694 l 868 1042 l 347 1042 l 347 694 l 868 694 z "},"Q":{"ha":1389,"x_min":174,"x_max":1042,"o":"m 347 0 l 347 174 l 174 174 l 174 1042 l 347 1042 l 347 1215 l 868 1215 l 868 1042 l 1042 1042 l 1042 347 l 868 347 l 868 1042 l 347 1042 l 347 174 l 694 174 l 694 0 l 347 0 m 1042 0 l 868 0 l 868 174 l 694 174 l 694 347 l 521 347 l 521 521 l 694 521 l 694 347 l 868 347 l 868 174 l 1042 174 l 1042 0 z "},"R":{"ha":1389,"x_min":174,"x_max":1042,"o":"m 174 1215 l 174 0 l 347 0 l 347 521 l 521 521 l 521 347 l 694 347 l 694 521 l 868 521 l 868 694 l 347 694 l 347 1042 l 868 1042 l 868 1215 l 174 1215 m 1042 1042 l 1042 694 l 868 694 l 868 1042 l 1042 1042 m 868 347 l 868 174 l 694 174 l 694 347 l 868 347 m 1042 174 l 1042 0 l 868 0 l 868 174 l 1042 174 z "},"S":{"ha":1389,"x_min":174,"x_max":1042,"o":"m 347 1042 l 347 694 l 174 694 l 174 1042 l 347 1042 m 868 1215 l 868 1042 l 347 1042 l 347 1215 l 868 1215 m 1042 1042 l 1042 868 l 868 868 l 868 1042 l 1042 1042 m 868 694 l 868 521 l 347 521 l 347 694 l 868 694 m 1042 521 l 1042 174 l 868 174 l 868 521 l 1042 521 m 868 174 l 868 0 l 347 0 l 347 174 l 868 174 m 347 347 l 347 174 l 174 174 l 174 347 l 347 347 z "},"T":{"ha":1389,"x_min":174,"x_max":1042,"o":"m 174 1042 l 174 1215 l 1042 1215 l 1042 1042 l 694 1042 l 694 0 l 521 0 l 521 1042 l 174 1042 z "},"U":{"ha":1389,"x_min":174,"x_max":1042,"o":"m 347 0 l 347 174 l 174 174 l 174 1215 l 347 1215 l 347 174 l 868 174 l 868 1215 l 1042 1215 l 1042 174 l 868 174 l 868 0 l 347 0 z "},"V":{"ha":1389,"x_min":174,"x_max":1042,"o":"m 521 0 l 521 174 l 347 174 l 347 347 l 174 347 l 174 1215 l 347 1215 l 347 347 l 521 347 l 521 174 l 694 174 l 694 347 l 868 347 l 868 1215 l 1042 1215 l 1042 347 l 868 347 l 868 174 l 694 174 l 694 0 l 521 0 z "},"W":{"ha":1389,"x_min":174,"x_max":1042,"o":"m 174 1215 l 174 0 l 347 0 l 347 174 l 521 174 l 521 347 l 347 347 l 347 1215 l 174 1215 m 694 347 l 694 174 l 868 174 l 868 0 l 1042 0 l 1042 1215 l 868 1215 l 868 347 l 694 347 m 694 694 l 694 347 l 521 347 l 521 694 l 694 694 z "},"X":{"ha":1389,"x_min":174,"x_max":1042,"o":"m 174 0 l 174 347 l 347 347 l 347 521 l 521 521 l 521 694 l 347 694 l 347 868 l 174 868 l 174 1215 l 347 1215 l 347 868 l 521 868 l 521 694 l 694 694 l 694 868 l 868 868 l 868 1215 l 1042 1215 l 1042 868 l 868 868 l 868 694 l 694 694 l 694 521 l 868 521 l 868 347 l 1042 347 l 1042 0 l 868 0 l 868 347 l 694 347 l 694 521 l 521 521 l 521 347 l 347 347 l 347 0 l 174 0 z "},"Y":{"ha":1389,"x_min":174,"x_max":1042,"o":"m 347 1215 l 347 868 l 174 868 l 174 1215 l 347 1215 m 521 868 l 521 694 l 347 694 l 347 868 l 521 868 m 694 694 l 694 0 l 521 0 l 521 694 l 694 694 m 868 868 l 868 694 l 694 694 l 694 868 l 868 868 m 1042 1215 l 1042 868 l 868 868 l 868 1215 l 1042 1215 z "},"Z":{"ha":1389,"x_min":174,"x_max":1042,"o":"m 1042 0 l 174 0 l 174 347 l 347 347 l 347 521 l 521 521 l 521 694 l 694 694 l 694 868 l 868 868 l 868 1042 l 174 1042 l 174 1215 l 1042 1215 l 1042 868 l 868 868 l 868 694 l 694 694 l 694 521 l 521 521 l 521 347 l 347 347 l 347 174 l 1042 174 l 1042 0 z "},"[":{"ha":1389,"x_min":174,"x_max":1042,"o":"m 174 1215 l 174 0 l 1042 0 l 1042 174 l 521 174 l 521 1042 l 1042 1042 l 1042 1215 l 174 1215 z "},"\\":{"ha":1389,"x_min":174,"x_max":1042,"o":"m 174 1042 l 347 1042 l 347 868 l 521 868 l 521 694 l 694 694 l 694 521 l 868 521 l 868 347 l 1042 347 l 1042 174 l 868 174 l 868 347 l 694 347 l 694 521 l 521 521 l 521 694 l 347 694 l 347 868 l 174 868 l 174 1042 z "},"]":{"ha":1389,"x_min":174,"x_max":1042,"o":"m 174 1215 l 174 1042 l 694 1042 l 694 174 l 174 174 l 174 0 l 1042 0 l 1042 1215 l 174 1215 z "},"^":{"ha":1389,"x_min":175,"x_max":1043,"o":"m 523 866 l 696 866 l 696 693 l 870 693 l 870 519 l 696 519 l 696 693 l 523 693 l 523 519 l 349 519 l 349 693 l 523 693 l 523 866 m 349 521 l 349 347 l 175 347 l 175 521 l 349 521 m 1043 521 l 1043 347 l 870 347 l 870 521 l 1043 521 z "},"_":{"ha":1389,"x_min":0,"x_max":1215,"o":"m 1215 0 l 1215 -174 l 0 -174 l 0 0 l 1215 0 z "},"`":{"ha":1389,"x_min":347,"x_max":868,"o":"m 347 1215 l 347 1042 l 521 1042 l 521 868 l 694 868 l 694 1042 l 521 1042 l 521 1215 l 347 1215 m 868 868 l 868 694 l 694 694 l 694 868 l 868 868 z "},"a":{"ha":1389,"x_min":174,"x_max":1042,"o":"m 347 347 l 347 174 l 174 174 l 174 347 l 347 347 m 347 174 l 347 0 l 1042 0 l 1042 694 l 868 694 l 868 521 l 347 521 l 347 347 l 868 347 l 868 174 l 347 174 m 868 868 l 868 694 l 347 694 l 347 868 l 868 868 z "},"b":{"ha":1389,"x_min":174,"x_max":1042,"o":"m 174 0 l 174 1215 l 347 1215 l 347 868 l 868 868 l 868 694 l 1042 694 l 1042 174 l 868 174 l 868 0 l 174 0 m 868 174 l 868 694 l 347 694 l 347 174 l 868 174 z "},"c":{"ha":1389,"x_min":174,"x_max":1042,"o":"m 347 868 l 1042 868 l 1042 694 l 347 694 l 347 174 l 1042 174 l 1042 0 l 347 0 l 347 174 l 174 174 l 174 694 l 347 694 l 347 868 z "},"d":{"ha":1389,"x_min":174,"x_max":1042,"o":"m 1042 1215 l 1042 0 l 347 0 l 347 174 l 174 174 l 174 694 l 347 694 l 347 868 l 868 868 l 868 1215 l 1042 1215 m 868 174 l 868 694 l 347 694 l 347 174 l 868 174 z "},"e":{"ha":1389,"x_min":174,"x_max":1042,"o":"m 1042 0 l 347 0 l 347 174 l 174 174 l 174 694 l 347 694 l 347 868 l 868 868 l 868 694 l 1042 694 l 1042 347 l 347 347 l 347 174 l 1042 174 l 1042 0 m 868 521 l 868 694 l 347 694 l 347 521 l 868 521 z "},"f":{"ha":1389,"x_min":174,"x_max":1042,"o":"m 868 1215 l 868 1042 l 521 1042 l 521 1215 l 868 1215 m 1042 1042 l 1042 868 l 868 868 l 868 1042 l 1042 1042 m 347 1042 l 347 694 l 174 694 l 174 521 l 347 521 l 347 0 l 521 0 l 521 521 l 868 521 l 868 694 l 521 694 l 521 1042 l 347 1042 z "},"g":{"ha":1389,"x_min":174,"x_max":1042,"o":"m 347 694 l 347 347 l 174 347 l 174 694 l 347 694 m 347 347 l 347 174 l 868 174 l 868 0 l 1042 0 l 1042 694 l 868 694 l 868 347 l 347 347 m 868 868 l 868 694 l 347 694 l 347 868 l 868 868 m 868 0 l 868 -174 l 347 -174 l 347 0 l 868 0 z "},"h":{"ha":1389,"x_min":174,"x_max":1042,"o":"m 174 1215 l 347 1215 l 347 868 l 868 868 l 868 694 l 1042 694 l 1042 0 l 868 0 l 868 694 l 347 694 l 347 0 l 174 0 l 174 1215 z "},"i":{"ha":1389,"x_min":347,"x_max":868,"o":"m 347 0 l 347 174 l 521 174 l 521 694 l 347 694 l 347 868 l 694 868 l 694 174 l 868 174 l 868 0 l 347 0 m 694 1215 l 694 1042 l 521 1042 l 521 1215 l 694 1215 z "},"j":{"ha":1389,"x_min":174,"x_max":868,"o":"m 868 1217 l 868 1043 l 694 1043 l 694 1217 l 868 1217 m 694 694 l 521 694 l 521 868 l 868 868 l 868 0 l 694 0 l 694 694 m 694 0 l 694 -172 l 347 -172 l 347 0 l 694 0 m 347 174 l 347 0 l 174 0 l 174 174 l 347 174 z "},"k":{"ha":1389,"x_min":174,"x_max":1042,"o":"m 1042 0 l 868 0 l 868 174 l 694 174 l 694 347 l 347 347 l 347 0 l 174 0 l 174 1215 l 347 1215 l 347 521 l 694 521 l 694 694 l 868 694 l 868 868 l 1042 868 l 1042 694 l 868 694 l 868 521 l 694 521 l 694 347 l 868 347 l 868 174 l 1042 174 l 1042 0 z "},"l":{"ha":1389,"x_min":347,"x_max":868,"o":"m 868 174 l 868 0 l 347 0 l 347 174 l 521 174 l 521 1042 l 347 1042 l 347 1215 l 694 1215 l 694 174 l 868 174 z "},"m":{"ha":1389,"x_min":174,"x_max":1042,"o":"m 174 0 l 174 868 l 521 868 l 521 694 l 347 694 l 347 0 l 174 0 m 694 694 l 694 174 l 521 174 l 521 694 l 694 694 m 694 868 l 694 694 l 868 694 l 868 0 l 1042 0 l 1042 868 l 694 868 z "},"n":{"ha":1389,"x_min":174,"x_max":1042,"o":"m 347 0 l 174 0 l 174 868 l 868 868 l 868 694 l 1042 694 l 1042 0 l 868 0 l 868 694 l 347 694 l 347 0 z "},"o":{"ha":1389,"x_min":174,"x_max":1042,"o":"m 174 174 l 174 694 l 347 694 l 347 868 l 868 868 l 868 694 l 1042 694 l 1042 174 l 868 174 l 868 0 l 347 0 l 347 174 l 174 174 m 868 174 l 868 694 l 347 694 l 347 174 l 868 174 z "},"p":{"ha":1389,"x_min":174,"x_max":1042,"o":"m 174 -347 l 174 868 l 868 868 l 868 694 l 1042 694 l 1042 174 l 868 174 l 868 0 l 347 0 l 347 -347 l 174 -347 m 868 174 l 868 694 l 347 694 l 347 174 l 868 174 z "},"q":{"ha":1389,"x_min":174,"x_max":1042,"o":"m 1042 -347 l 868 -347 l 868 0 l 347 0 l 347 174 l 174 174 l 174 694 l 347 694 l 347 868 l 1042 868 l 1042 -347 m 868 174 l 868 694 l 347 694 l 347 174 l 868 174 z "},"r":{"ha":1389,"x_min":174,"x_max":1042,"o":"m 174 0 l 174 868 l 347 868 l 347 694 l 521 694 l 521 521 l 347 521 l 347 0 l 174 0 m 1042 868 l 1042 694 l 521 694 l 521 868 l 1042 868 z "},"s":{"ha":1389,"x_min":174,"x_max":1042,"o":"m 174 0 l 174 174 l 868 174 l 868 347 l 347 347 l 347 521 l 174 521 l 174 694 l 347 694 l 347 868 l 1042 868 l 1042 694 l 347 694 l 347 521 l 868 521 l 868 347 l 1042 347 l 1042 174 l 868 174 l 868 0 l 174 0 z "},"t":{"ha":1389,"x_min":347,"x_max":1215,"o":"m 1042 174 l 1042 0 l 694 0 l 694 174 l 1042 174 m 1215 347 l 1215 174 l 1042 174 l 1042 347 l 1215 347 m 694 174 l 694 694 l 1042 694 l 1042 868 l 694 868 l 694 1215 l 521 1215 l 521 868 l 347 868 l 347 694 l 521 694 l 521 174 l 694 174 z "},"u":{"ha":1389,"x_min":174,"x_max":1042,"o":"m 174 174 l 174 868 l 347 868 l 347 174 l 174 174 m 694 174 l 694 0 l 347 0 l 347 174 l 694 174 m 694 347 l 694 174 l 868 174 l 868 0 l 1042 0 l 1042 868 l 868 868 l 868 347 l 694 347 z "},"v":{"ha":1389,"x_min":174,"x_max":1042,"o":"m 521 0 l 521 174 l 347 174 l 347 347 l 174 347 l 174 868 l 347 868 l 347 347 l 521 347 l 521 174 l 694 174 l 694 347 l 868 347 l 868 868 l 1042 868 l 1042 347 l 868 347 l 868 174 l 694 174 l 694 0 l 521 0 z "},"w":{"ha":1389,"x_min":174,"x_max":1042,"o":"m 174 868 l 174 0 l 521 0 l 521 174 l 347 174 l 347 868 l 174 868 m 694 521 l 694 174 l 521 174 l 521 521 l 694 521 m 694 174 l 694 0 l 1042 0 l 1042 868 l 868 868 l 868 174 l 694 174 z "},"x":{"ha":1389,"x_min":174,"x_max":1042,"o":"m 174 0 l 174 174 l 347 174 l 347 347 l 521 347 l 521 521 l 347 521 l 347 694 l 174 694 l 174 868 l 347 868 l 347 694 l 521 694 l 521 521 l 694 521 l 694 694 l 868 694 l 868 868 l 1042 868 l 1042 694 l 868 694 l 868 521 l 694 521 l 694 347 l 868 347 l 868 174 l 1042 174 l 1042 0 l 868 0 l 868 174 l 694 174 l 694 347 l 521 347 l 521 174 l 347 174 l 347 0 l 174 0 z "},"y":{"ha":1389,"x_min":174,"x_max":1042,"o":"m 868 0 l 868 -174 l 347 -174 l 347 0 l 868 0 m 868 0 l 868 174 l 347 174 l 347 347 l 868 347 l 868 868 l 1042 868 l 1042 0 l 868 0 m 347 868 l 347 347 l 174 347 l 174 868 l 347 868 z "},"z":{"ha":1389,"x_min":174,"x_max":1042,"o":"m 174 868 l 1042 868 l 1042 694 l 868 694 l 868 521 l 694 521 l 694 347 l 521 347 l 521 174 l 1042 174 l 1042 0 l 174 0 l 174 174 l 347 174 l 347 347 l 521 347 l 521 521 l 694 521 l 694 694 l 174 694 l 174 868 z "},"{":{"ha":1389,"x_min":174,"x_max":1042,"o":"m 174 694 l 174 521 l 347 521 l 347 174 l 521 174 l 521 0 l 1042 0 l 1042 174 l 694 174 l 694 521 l 521 521 l 521 694 l 694 694 l 694 1042 l 1042 1042 l 1042 1215 l 521 1215 l 521 1042 l 347 1042 l 347 694 l 174 694 z "},"|":{"ha":1389,"x_min":521,"x_max":694,"o":"m 694 1215 l 694 -174 l 521 -174 l 521 1215 l 694 1215 z "},"}":{"ha":1389,"x_min":174,"x_max":1042,"o":"m 174 1215 l 174 1042 l 521 1042 l 521 694 l 694 694 l 694 521 l 521 521 l 521 174 l 174 174 l 174 0 l 694 0 l 694 174 l 868 174 l 868 521 l 1042 521 l 1042 694 l 868 694 l 868 1042 l 694 1042 l 694 1215 l 174 1215 z "},"~":{"ha":1389,"x_min":174,"x_max":1042,"o":"m 347 868 l 174 868 l 174 1042 l 347 1042 l 347 1215 l 694 1215 l 694 1042 l 868 1042 l 868 1215 l 1042 1215 l 1042 1042 l 868 1042 l 868 868 l 521 868 l 521 1042 l 347 1042 l 347 868 z "},"Ä":{"ha":1389,"x_min":174,"x_max":1042,"o":"m 347 347 l 347 174 l 174 174 l 174 347 l 347 347 m 694 347 l 694 174 l 521 174 l 521 347 l 694 347 m 1042 347 l 1042 174 l 868 174 l 868 347 l 1042 347 m 521 521 l 521 347 l 347 347 l 347 521 l 521 521 m 868 521 l 868 347 l 694 347 l 694 521 l 868 521 m 347 694 l 347 521 l 174 521 l 174 694 l 347 694 m 694 694 l 694 521 l 521 521 l 521 694 l 694 694 m 1042 694 l 1042 521 l 868 521 l 868 694 l 1042 694 m 347 1042 l 347 868 l 174 868 l 174 1042 l 347 1042 m 694 1042 l 694 868 l 521 868 l 521 1042 l 694 1042 m 1042 1042 l 1042 868 l 868 868 l 868 1042 l 1042 1042 m 521 868 l 521 694 l 347 694 l 347 868 l 521 868 m 868 868 l 868 694 l 694 694 l 694 868 l 868 868 z "},"Å":{"ha":1389,"x_min":2,"x_max":1217,"o":"m 175 -174 l 175 172 l 2 172 l 2 693 l 175 693 l 175 866 l 523 866 l 523 693 l 696 693 l 696 866 l 1043 866 l 1043 693 l 1217 693 l 1217 519 l 1043 519 l 1043 172 l 1217 172 l 1217 0 l 1043 0 l 1043 -174 l 696 -174 l 696 0 l 523 0 l 523 -174 l 175 -174 m 696 1040 l 696 866 l 523 866 l 523 1040 l 696 1040 m 870 1215 l 870 1042 l 696 1042 l 696 1215 l 870 1215 z "},"Ç":{"ha":1389,"x_min":0,"x_max":1215,"o":"m 696 1040 l 696 866 l 523 866 l 523 1040 l 696 1040 m 868 1215 l 868 1042 l 694 1042 l 694 1215 l 868 1215 m 174 694 l 174 174 l 0 174 l 0 694 l 174 694 m 174 174 l 174 -172 l 521 -172 l 521 0 l 347 0 l 347 174 l 174 174 m 694 174 l 694 0 l 521 0 l 521 174 l 694 174 m 1042 0 l 1042 -172 l 694 -172 l 694 0 l 1042 0 m 1215 174 l 1215 0 l 1042 0 l 1042 174 l 1215 174 m 1042 521 l 1042 174 l 868 174 l 868 521 l 1042 521 m 1215 694 l 1215 521 l 1042 521 l 1042 694 l 1215 694 m 1042 868 l 1042 694 l 694 694 l 694 868 l 1042 868 m 521 868 l 521 694 l 174 694 l 174 868 l 521 868 z "},"É":{"ha":1389,"x_min":174,"x_max":1215,"o":"m 174 -174 l 174 868 l 347 868 l 347 694 l 521 694 l 521 521 l 694 521 l 694 347 l 868 347 l 868 174 l 1042 174 l 1042 0 l 1215 0 l 1215 -174 l 1042 -174 l 1042 0 l 694 0 l 694 174 l 521 174 l 521 0 l 347 0 l 347 -174 l 174 -174 z "},"Ñ":{"ha":1389,"x_min":0,"x_max":1215,"o":"m 0 0 l 0 -174 l 1215 -174 l 1215 0 l 1042 0 l 1042 174 l 868 174 l 868 0 l 694 0 l 694 174 l 521 174 l 521 0 l 347 0 l 347 174 l 174 174 l 174 0 l 0 0 m 521 347 l 521 174 l 347 174 l 347 347 l 521 347 m 868 347 l 868 174 l 694 174 l 694 347 l 868 347 m 694 694 l 694 347 l 521 347 l 521 694 l 694 694 m 521 868 l 521 694 l 347 694 l 347 868 l 521 868 m 868 868 l 868 694 l 694 694 l 694 868 l 868 868 m 174 1042 l 174 868 l 347 868 l 347 1042 l 521 1042 l 521 868 l 694 868 l 694 1042 l 868 1042 l 868 868 l 1042 868 l 1042 1042 l 1215 1042 l 1215 1215 l 0 1215 l 0 1042 l 174 1042 z "},"Ö":{"ha":1389,"x_min":0,"x_max":1215,"o":"m 521 347 l 521 0 l 347 0 l 347 347 l 521 347 m 347 521 l 347 347 l 174 347 l 174 521 l 347 521 m 174 694 l 174 521 l 0 521 l 0 694 l 174 694 m 521 347 l 694 347 l 694 694 l 1042 694 l 1042 1042 l 1215 1042 l 1215 868 l 868 868 l 868 521 l 521 521 l 521 347 z "},"Ü":{"ha":1389,"x_min":0,"x_max":1215,"o":"m 0 521 l 174 521 l 174 347 l 347 347 l 347 0 l 521 0 l 521 347 l 694 347 l 694 521 l 868 521 l 868 694 l 1042 694 l 1042 868 l 1215 868 l 1215 -174 l 0 -174 l 0 521 m 1215 1215 l 1215 1042 l 1042 1042 l 1042 868 l 868 868 l 868 694 l 694 694 l 694 521 l 521 521 l 521 347 l 347 347 l 347 521 l 174 521 l 174 694 l 0 694 l 0 1215 l 1215 1215 z "},"á":{"ha":1389,"x_min":0,"x_max":1215,"o":"m 0 174 l 174 174 l 174 0 l 347 0 l 347 -174 l 0 -174 l 0 174 m 1215 174 l 1215 -174 l 521 -174 l 521 174 l 1215 174 m 521 347 l 1042 347 l 1042 1215 l 0 1215 l 0 347 l 174 347 l 174 521 l 347 521 l 347 694 l 521 694 l 521 347 z "},"à":{"ha":1389,"x_min":0,"x_max":1215,"o":"m 1215 0 l 1215 -174 l 0 -174 l 0 0 l 1215 0 m 1215 521 l 1215 347 l 0 347 l 0 521 l 1215 521 m 1215 868 l 1215 694 l 0 694 l 0 868 l 1215 868 m 1215 1215 l 1215 1042 l 0 1042 l 0 1215 l 1215 1215 z "},"â":{"ha":1389,"x_min":0,"x_max":1215,"o":"m 0 694 l 0 521 l 174 521 l 174 347 l 347 347 l 347 521 l 1215 521 l 1215 694 l 347 694 l 347 868 l 174 868 l 174 694 l 0 694 m 347 347 l 347 174 l 694 174 l 694 0 l 521 0 l 521 347 l 347 347 m 347 868 l 521 868 l 521 1215 l 694 1215 l 694 1042 l 347 1042 l 347 868 z "},"ä":{"ha":1389,"x_min":174,"x_max":1042,"o":"m 694 174 l 694 0 l 521 0 l 521 174 l 694 174 m 347 174 l 347 0 l 174 0 l 174 174 l 347 174 m 1042 174 l 1042 0 l 868 0 l 868 174 l 1042 174 z "},"ã":{"ha":1389,"x_min":0,"x_max":1215,"o":"m 521 0 l 521 -174 l 694 -174 l 694 0 l 868 0 l 868 174 l 694 174 l 694 1215 l 521 1215 l 521 174 l 347 174 l 347 0 l 521 0 m 347 174 l 174 174 l 174 521 l 0 521 l 0 347 l 347 347 l 347 174 m 868 174 l 868 347 l 1215 347 l 1215 521 l 1042 521 l 1042 174 l 868 174 z "},"å":{"ha":1389,"x_min":0,"x_max":1215,"o":"m 347 1042 l 347 868 l 521 868 l 521 -174 l 694 -174 l 694 868 l 868 868 l 868 1042 l 694 1042 l 694 1215 l 521 1215 l 521 1042 l 347 1042 m 347 694 l 0 694 l 0 521 l 174 521 l 174 868 l 347 868 l 347 694 m 1042 868 l 1042 521 l 1215 521 l 1215 694 l 868 694 l 868 868 l 1042 868 z "},"ç":{"ha":1389,"x_min":0,"x_max":1215,"o":"m 1215 1215 l 1215 1042 l 0 1042 l 0 1215 l 1215 1215 z "},"é":{"ha":1389,"x_min":0,"x_max":1215,"o":"m 0 347 l 0 174 l 174 174 l 174 0 l 347 0 l 347 -174 l 521 -174 l 521 174 l 1215 174 l 1215 1215 l 1042 1215 l 1042 347 l 521 347 l 521 694 l 347 694 l 347 521 l 174 521 l 174 347 l 0 347 z "},"è":{"ha":1389,"x_min":0,"x_max":1042,"o":"m 0 -174 l 0 1215 l 1042 1215 l 1042 -174 l 0 -174 z "},"ê":{"ha":1389,"x_min":0,"x_max":1215,"o":"m 694 0 l 694 -174 l 0 -174 l 0 0 l 694 0 m 1215 0 l 1215 -174 l 885 -174 l 885 0 l 1215 0 m 868 0 l 868 521 l 1215 521 l 1215 694 l 868 694 l 868 1215 l 694 1215 l 694 1042 l 521 1042 l 521 868 l 347 868 l 347 694 l 174 694 l 174 521 l 347 521 l 347 347 l 521 347 l 521 174 l 694 174 l 694 0 l 868 0 m 347 1215 l 347 1042 l 0 1042 l 0 1215 l 347 1215 z "},"ë":{"ha":1389,"x_min":0,"x_max":1215,"o":"m 1215 0 l 1215 -174 l 521 -174 l 521 0 l 1215 0 m 330 0 l 330 -174 l 0 -174 l 0 0 l 330 0 m 521 0 l 521 174 l 694 174 l 694 347 l 868 347 l 868 521 l 1042 521 l 1042 694 l 868 694 l 868 868 l 694 868 l 694 1042 l 521 1042 l 521 1215 l 347 1215 l 347 694 l 0 694 l 0 521 l 347 521 l 347 0 l 521 0 m 1215 1215 l 1215 1042 l 868 1042 l 868 1215 l 1215 1215 z "},"í":{"ha":1389,"x_min":0,"x_max":1215,"o":"m 694 694 l 694 1042 l 521 1042 l 521 694 l 0 694 l 0 521 l 174 521 l 174 347 l 347 347 l 347 174 l 521 174 l 521 0 l 694 0 l 694 174 l 868 174 l 868 347 l 1042 347 l 1042 521 l 1215 521 l 1215 694 l 694 694 m 1042 868 l 1042 1215 l 1215 1215 l 1215 868 l 1042 868 m 1215 174 l 1215 -174 l 1042 -174 l 1042 174 l 1215 174 z "},"ì":{"ha":1389,"x_min":0,"x_max":1215,"o":"m 1215 347 l 1215 521 l 1042 521 l 1042 694 l 868 694 l 868 868 l 694 868 l 694 1042 l 521 1042 l 521 868 l 347 868 l 347 694 l 174 694 l 174 521 l 0 521 l 0 347 l 521 347 l 521 0 l 694 0 l 694 347 l 1215 347 m 1215 174 l 1215 -174 l 1042 -174 l 1042 174 l 1215 174 m 1042 868 l 1042 1215 l 1215 1215 l 1215 868 l 1042 868 z "},"î":{"ha":1389,"x_min":0,"x_max":1215,"o":"m 1215 694 l 1215 521 l 0 521 l 0 694 l 1215 694 z "},"ï":{"ha":1389,"x_min":0,"x_max":1215,"o":"m 1215 -174 l 1215 0 l 174 0 l 174 1215 l 0 1215 l 0 -174 l 1215 -174 z "},"ñ":{"ha":1389,"x_min":0,"x_max":1215,"o":"m 1042 694 l 1042 868 l 868 868 l 868 694 l 0 694 l 0 521 l 868 521 l 868 347 l 1042 347 l 1042 521 l 1215 521 l 1215 694 l 1042 694 m 694 347 l 694 0 l 521 0 l 521 174 l 868 174 l 868 347 l 694 347 m 868 1042 l 521 1042 l 521 1215 l 694 1215 l 694 868 l 868 868 l 868 1042 z "},"ó":{"ha":1389,"x_min":0,"x_max":1215,"o":"m 174 0 l 174 -174 l 0 -174 l 0 0 l 174 0 m 521 0 l 521 -174 l 347 -174 l 347 0 l 521 0 m 868 0 l 868 -174 l 694 -174 l 694 0 l 868 0 m 1215 0 l 1215 -174 l 1042 -174 l 1042 0 l 1215 0 m 347 174 l 347 0 l 174 0 l 174 174 l 347 174 m 694 174 l 694 0 l 521 0 l 521 174 l 694 174 m 1042 174 l 1042 0 l 868 0 l 868 174 l 1042 174 m 174 345 l 174 172 l 0 172 l 0 345 l 174 345 m 521 345 l 521 172 l 347 172 l 347 345 l 521 345 m 868 345 l 868 172 l 694 172 l 694 345 l 868 345 m 1215 345 l 1215 172 l 1042 172 l 1042 345 l 1215 345 m 174 694 l 174 521 l 0 521 l 0 694 l 174 694 m 521 694 l 521 521 l 347 521 l 347 694 l 521 694 m 868 694 l 868 521 l 694 521 l 694 694 l 868 694 m 1215 694 l 1215 521 l 1042 521 l 1042 694 l 1215 694 m 174 1042 l 174 868 l 0 868 l 0 1042 l 174 1042 m 521 1042 l 521 868 l 347 868 l 347 1042 l 521 1042 m 868 1042 l 868 868 l 694 868 l 694 1042 l 868 1042 m 1215 1042 l 1215 868 l 1042 868 l 1042 1042 l 1215 1042 m 347 521 l 347 347 l 174 347 l 174 521 l 347 521 m 693 521 l 693 347 l 519 347 l 519 521 l 693 521 m 1042 521 l 1042 347 l 868 347 l 868 521 l 1042 521 m 347 868 l 347 694 l 174 694 l 174 868 l 347 868 m 694 868 l 694 694 l 521 694 l 521 868 l 694 868 m 1042 868 l 1042 694 l 868 694 l 868 868 l 1042 868 m 347 1215 l 347 1042 l 174 1042 l 174 1215 l 347 1215 m 696 1215 l 696 1042 l 523 1042 l 523 1215 l 696 1215 m 1043 1215 l 1043 1042 l 870 1042 l 870 1215 l 1043 1215 z "},"ò":{"ha":1389,"x_min":0,"x_max":1215,"o":"m 174 175 l 174 2 l 0 2 l 0 175 l 174 175 m 521 175 l 521 2 l 347 2 l 347 175 l 521 175 m 868 175 l 868 2 l 694 2 l 694 175 l 868 175 m 1215 175 l 1215 2 l 1042 2 l 1042 175 l 1215 175 m 347 349 l 347 175 l 174 175 l 174 349 l 347 349 m 694 349 l 694 175 l 521 175 l 521 349 l 694 349 m 1042 349 l 1042 175 l 868 175 l 868 349 l 1042 349 m 174 521 l 174 347 l 0 347 l 0 521 l 174 521 m 521 521 l 521 347 l 347 347 l 347 521 l 521 521 m 868 521 l 868 347 l 694 347 l 694 521 l 868 521 m 1215 521 l 1215 347 l 1042 347 l 1042 521 l 1215 521 m 174 870 l 174 696 l 0 696 l 0 870 l 174 870 m 521 870 l 521 696 l 347 696 l 347 870 l 521 870 m 868 870 l 868 696 l 694 696 l 694 870 l 868 870 m 1215 870 l 1215 696 l 1042 696 l 1042 870 l 1215 870 m 174 1215 l 174 1042 l 0 1042 l 0 1215 l 174 1215 m 521 1215 l 521 1042 l 347 1042 l 347 1215 l 521 1215 m 868 1215 l 868 1042 l 694 1042 l 694 1215 l 868 1215 m 1215 1215 l 1215 1042 l 1042 1042 l 1042 1215 l 1215 1215 m 347 696 l 347 523 l 174 523 l 174 696 l 347 696 m 693 696 l 693 523 l 519 523 l 519 696 l 693 696 m 1042 696 l 1042 523 l 868 523 l 868 696 l 1042 696 m 347 1043 l 347 870 l 174 870 l 174 1043 l 347 1043 m 694 1042 l 694 868 l 521 868 l 521 1042 l 694 1042 m 1042 1043 l 1042 870 l 868 870 l 868 1043 l 1042 1043 m 174 -174 l 174 0 l 347 0 l 347 -174 l 174 -174 m 523 -172 l 523 0 l 696 0 l 696 -172 l 523 -172 m 870 -174 l 870 0 l 1043 0 l 1043 -174 l 870 -174 z "},"ô":{"ha":1389,"x_min":0,"x_max":1215,"o":"m 1215 174 l 1215 0 l 0 0 l 0 868 l 174 868 l 174 174 l 1215 174 m 1042 1042 l 1042 868 l 174 868 l 174 1042 l 1042 1042 m 1215 868 l 1215 694 l 1042 694 l 1042 868 l 1215 868 z "},"ö":{"ha":1389,"x_min":0,"x_max":1215,"o":"m 0 174 l 0 0 l 1215 0 l 1215 694 l 1042 694 l 1042 174 l 0 174 m 1042 868 l 1042 694 l 0 694 l 0 868 l 1042 868 z "},"õ":{"ha":1389,"x_min":1042,"x_max":1215,"o":"m 1215 1215 l 1215 -174 l 1042 -174 l 1042 1215 l 1215 1215 z "},"ú":{"ha":1389,"x_min":0,"x_max":1215,"o":"m 0 694 l 0 521 l 174 521 l 174 347 l 347 347 l 347 174 l 521 174 l 521 0 l 694 0 l 694 174 l 868 174 l 868 347 l 1042 347 l 1042 521 l 1215 521 l 1215 694 l 1042 694 l 1042 868 l 868 868 l 868 1042 l 694 1042 l 694 1215 l 521 1215 l 521 1042 l 347 1042 l 347 868 l 174 868 l 174 694 l 0 694 z "},"ù":{"ha":1389,"x_min":0,"x_max":1215,"o":"m 1215 0 l 1215 -174 l 0 -174 l 0 0 l 1215 0 m 1215 1215 l 1215 1042 l 0 1042 l 0 1215 l 1215 1215 z "},"û":{"ha":1389,"x_min":0,"x_max":1215,"o":"m 0 347 l 347 347 l 347 0 l 521 0 l 521 521 l 0 521 l 0 347 m 694 0 l 694 521 l 1215 521 l 1215 347 l 868 347 l 868 0 l 694 0 m 0 694 l 521 694 l 521 1215 l 347 1215 l 347 868 l 0 868 l 0 694 m 694 1215 l 694 694 l 1215 694 l 1215 868 l 868 868 l 868 1215 l 694 1215 z "},"ü":{"ha":1389,"x_min":0,"x_max":1215,"o":"m 0 0 l 0 -174 l 1215 -174 l 1215 1215 l 0 1215 l 0 1042 l 1042 1042 l 1042 0 l 0 0 m 694 694 l 694 347 l 347 347 l 347 694 l 694 694 z "},"†":{"ha":1389,"x_min":0,"x_max":174,"o":"m 174 1215 l 174 -174 l 0 -174 l 0 1215 l 174 1215 z "},"°":{"ha":1389,"x_min":0,"x_max":1215,"o":"m 0 -174 l 0 1215 l 1215 1215 l 1215 -174 l 0 -174 z "},"¢":{"ha":1389,"x_min":0,"x_max":1215,"o":"m 694 347 l 694 1215 l 1215 1215 l 1215 -174 l 0 -174 l 0 1215 l 521 1215 l 521 347 l 694 347 m 694 174 l 521 174 l 521 0 l 694 0 l 694 174 z "},"£":{"ha":1389,"x_min":0,"x_max":1215,"o":"m 0 1215 l 347 1215 l 347 694 l 521 694 l 521 1215 l 694 1215 l 694 694 l 868 694 l 868 1215 l 1215 1215 l 1215 -174 l 0 -174 l 0 1215 z "},"§":{"ha":1389,"x_min":0,"x_max":1215,"o":"m 0 1215 l 347 1215 l 347 868 l 174 868 l 174 694 l 347 694 l 347 521 l 174 521 l 174 347 l 347 347 l 347 0 l 521 0 l 521 347 l 694 347 l 694 0 l 868 0 l 868 347 l 1042 347 l 1042 521 l 868 521 l 868 694 l 1042 694 l 1042 868 l 868 868 l 868 1215 l 1215 1215 l 1215 -174 l 0 -174 l 0 1215 m 694 694 l 694 521 l 521 521 l 521 694 l 694 694 m 694 1215 l 694 868 l 521 868 l 521 1215 l 694 1215 z "},"•":{"ha":1389,"x_min":0,"x_max":1215,"o":"m 0 1215 l 521 1215 l 521 1042 l 347 1042 l 347 868 l 174 868 l 174 694 l 347 694 l 347 521 l 521 521 l 521 347 l 174 347 l 174 174 l 521 174 l 521 0 l 694 0 l 694 174 l 868 174 l 868 347 l 1042 347 l 1042 521 l 868 521 l 868 694 l 694 694 l 694 868 l 1042 868 l 1042 1042 l 694 1042 l 694 1215 l 1215 1215 l 1215 -174 l 0 -174 l 0 1215 m 521 868 l 521 694 l 347 694 l 347 868 l 521 868 m 868 521 l 868 347 l 694 347 l 694 521 l 868 521 z "},"¶":{"ha":1389,"x_min":0,"x_max":1215,"o":"m 174 868 l 174 1215 l 0 1215 l 0 -174 l 1215 -174 l 1215 1215 l 521 1215 l 521 868 l 174 868 m 1042 0 l 694 0 l 694 347 l 1042 347 l 1042 0 m 694 521 l 521 521 l 521 694 l 694 694 l 694 521 m 521 347 l 347 347 l 347 521 l 521 521 l 521 347 m 347 174 l 174 174 l 174 347 l 347 347 l 347 174 m 694 694 l 694 868 l 868 868 l 868 694 l 694 694 m 868 868 l 868 1042 l 1042 1042 l 1042 868 l 868 868 z "},"ß":{"ha":1389,"x_min":0,"x_max":1215,"o":"m 347 1042 l 347 1215 l 0 1215 l 0 -174 l 1215 -174 l 1215 1215 l 521 1215 l 521 1042 l 694 1042 l 694 694 l 521 694 l 521 521 l 694 521 l 694 347 l 868 347 l 868 521 l 1042 521 l 1042 347 l 868 347 l 868 174 l 1042 174 l 1042 0 l 868 0 l 868 174 l 694 174 l 694 0 l 347 0 l 347 174 l 174 174 l 174 521 l 347 521 l 347 694 l 174 694 l 174 1042 l 347 1042 m 521 1042 l 521 694 l 347 694 l 347 1042 l 521 1042 m 521 521 l 347 521 l 347 174 l 694 174 l 694 347 l 521 347 l 521 521 z "},"®":{"ha":1389,"x_min":0,"x_max":1215,"o":"m 0 1215 l 521 1215 l 521 694 l 694 694 l 694 1215 l 1215 1215 l 1215 -174 l 0 -174 l 0 1215 z "},"©":{"ha":1389,"x_min":0,"x_max":1215,"o":"m 0 1215 l 521 1215 l 521 1042 l 347 1042 l 347 868 l 174 868 l 174 347 l 347 347 l 347 174 l 521 174 l 521 0 l 694 0 l 694 174 l 521 174 l 521 347 l 347 347 l 347 868 l 521 868 l 521 1042 l 694 1042 l 694 1215 l 1215 1215 l 1215 -174 l 0 -174 l 0 1215 z "},"™":{"ha":1389,"x_min":0,"x_max":1215,"o":"m 0 1215 l 521 1215 l 521 1042 l 694 1042 l 694 868 l 868 868 l 868 347 l 694 347 l 694 174 l 521 174 l 521 0 l 694 0 l 694 174 l 868 174 l 868 347 l 1042 347 l 1042 868 l 868 868 l 868 1042 l 694 1042 l 694 1215 l 1215 1215 l 1215 -174 l 0 -174 l 0 1215 z "},"´":{"ha":1389,"x_min":0,"x_max":1215,"o":"m 0 1215 l 521 1215 l 521 868 l 347 868 l 347 1042 l 174 1042 l 174 868 l 347 868 l 347 694 l 521 694 l 521 521 l 347 521 l 347 347 l 174 347 l 174 174 l 347 174 l 347 347 l 521 347 l 521 0 l 694 0 l 694 347 l 868 347 l 868 174 l 1042 174 l 1042 347 l 868 347 l 868 521 l 694 521 l 694 694 l 868 694 l 868 868 l 1042 868 l 1042 1042 l 868 1042 l 868 868 l 694 868 l 694 1215 l 1215 1215 l 1215 -174 l 0 -174 l 0 1215 z "},"¨":{"ha":1389,"x_min":0,"x_max":1215,"o":"m 174 521 l 521 521 l 521 174 l 694 174 l 694 521 l 1042 521 l 1042 694 l 694 694 l 694 1042 l 521 1042 l 521 694 l 174 694 l 174 521 m 1215 1215 l 1215 -174 l 0 -174 l 0 1215 l 1215 1215 z "},"≠":{"ha":1389,"x_min":0,"x_max":1215,"o":"m 347 0 l 521 0 l 521 174 l 347 174 l 347 0 m 521 174 l 694 174 l 694 521 l 521 521 l 521 174 m 1215 1215 l 1215 -174 l 0 -174 l 0 1215 l 1215 1215 z "},"Æ":{"ha":1389,"x_min":0,"x_max":1215,"o":"m 174 521 l 1042 521 l 1042 694 l 174 694 l 174 521 m 1215 1215 l 1215 -174 l 0 -174 l 0 1215 l 1215 1215 z "},"Ø":{"ha":1389,"x_min":0,"x_max":1215,"o":"m 521 0 l 694 0 l 694 174 l 521 174 l 521 0 m 1215 1215 l 1215 -174 l 0 -174 l 0 1215 l 1215 1215 z "},"∞":{"ha":1389,"x_min":0,"x_max":1215,"o":"m 868 868 l 1042 868 l 1042 1042 l 868 1042 l 868 868 m 694 694 l 868 694 l 868 868 l 694 868 l 694 694 m 521 521 l 694 521 l 694 694 l 521 694 l 521 521 m 347 347 l 521 347 l 521 521 l 347 521 l 347 347 m 174 174 l 347 174 l 347 347 l 174 347 l 174 174 m 1215 1215 l 1215 -174 l 0 -174 l 0 1215 l 1215 1215 z "},"±":{"ha":1389,"x_min":0,"x_max":1215,"o":"m 0 1215 l 347 1215 l 347 1042 l 174 1042 l 174 174 l 347 174 l 347 0 l 868 0 l 868 174 l 1042 174 l 1042 1042 l 868 1042 l 868 1215 l 1215 1215 l 1215 -174 l 0 -174 l 0 1215 m 347 1042 l 868 1042 l 868 868 l 694 868 l 694 694 l 521 694 l 521 521 l 347 521 l 347 1042 m 694 694 l 868 694 l 868 174 l 347 174 l 347 347 l 521 347 l 521 521 l 694 521 l 694 694 z "},"≤":{"ha":1389,"x_min":0,"x_max":1215,"o":"m 0 1215 l 521 1215 l 521 1042 l 347 1042 l 347 868 l 521 868 l 521 174 l 347 174 l 347 0 l 868 0 l 868 174 l 694 174 l 694 1215 l 1215 1215 l 1215 -174 l 0 -174 l 0 1215 z "},"≥":{"ha":1389,"x_min":0,"x_max":1215,"o":"m 0 1215 l 347 1215 l 347 1042 l 174 1042 l 174 868 l 347 868 l 347 1042 l 868 1042 l 868 694 l 521 694 l 521 521 l 347 521 l 347 347 l 174 347 l 174 0 l 1042 0 l 1042 174 l 347 174 l 347 347 l 521 347 l 521 521 l 868 521 l 868 694 l 1042 694 l 1042 1042 l 868 1042 l 868 1215 l 1215 1215 l 1215 -174 l 0 -174 l 0 1215 z "},"¥":{"ha":1389,"x_min":0,"x_max":1215,"o":"m 0 1215 l 174 1215 l 174 1042 l 868 1042 l 868 868 l 694 868 l 694 694 l 521 694 l 521 521 l 868 521 l 868 174 l 347 174 l 347 347 l 174 347 l 174 174 l 347 174 l 347 0 l 868 0 l 868 174 l 1042 174 l 1042 521 l 868 521 l 868 868 l 1042 868 l 1042 1215 l 1215 1215 l 1215 -174 l 0 -174 l 0 1215 z "},"µ":{"ha":1389,"x_min":0,"x_max":1215,"o":"m 0 1215 l 694 1215 l 694 1042 l 521 1042 l 521 868 l 347 868 l 347 694 l 174 694 l 174 347 l 694 347 l 694 0 l 868 0 l 868 347 l 1042 347 l 1042 521 l 868 521 l 868 1215 l 1215 1215 l 1215 -174 l 0 -174 l 0 1215 m 347 521 l 347 694 l 521 694 l 521 868 l 694 868 l 694 521 l 347 521 z "},"∂":{"ha":1389,"x_min":0,"x_max":1215,"o":"m 0 1215 l 174 1215 l 174 694 l 868 694 l 868 174 l 347 174 l 347 347 l 174 347 l 174 174 l 347 174 l 347 0 l 868 0 l 868 174 l 1042 174 l 1042 694 l 868 694 l 868 868 l 347 868 l 347 1042 l 1042 1042 l 1042 1215 l 1215 1215 l 1215 -174 l 0 -174 l 0 1215 z "},"∑":{"ha":1389,"x_min":0,"x_max":1215,"o":"m 0 1215 l 521 1215 l 521 1042 l 347 1042 l 347 868 l 174 868 l 174 174 l 347 174 l 347 0 l 868 0 l 868 174 l 1042 174 l 1042 521 l 868 521 l 868 694 l 347 694 l 347 868 l 521 868 l 521 1042 l 1042 1042 l 1042 1215 l 1215 1215 l 1215 -174 l 0 -174 l 0 1215 m 868 521 l 868 174 l 347 174 l 347 521 l 868 521 z "},"∏":{"ha":1389,"x_min":0,"x_max":1215,"o":"m 0 1215 l 174 1215 l 174 1042 l 868 1042 l 868 868 l 694 868 l 694 694 l 521 694 l 521 521 l 347 521 l 347 0 l 521 0 l 521 521 l 694 521 l 694 694 l 868 694 l 868 868 l 1042 868 l 1042 1215 l 1215 1215 l 1215 -174 l 0 -174 l 0 1215 z "},"∫":{"ha":1389,"x_min":0,"x_max":1215,"o":"m 0 1215 l 347 1215 l 347 1042 l 174 1042 l 174 694 l 347 694 l 347 521 l 868 521 l 868 347 l 694 347 l 694 174 l 174 174 l 174 0 l 694 0 l 694 174 l 868 174 l 868 347 l 1042 347 l 1042 1042 l 868 1042 l 868 1215 l 1215 1215 l 1215 -174 l 0 -174 l 0 1215 m 868 1042 l 868 694 l 347 694 l 347 1042 l 868 1042 z "},"ª":{"ha":1389,"x_min":0,"x_max":1215,"o":"m 521 347 l 694 347 l 694 521 l 521 521 l 521 347 m 521 694 l 694 694 l 694 868 l 521 868 l 521 694 m 1215 1215 l 1215 -174 l 0 -174 l 0 1215 l 1215 1215 z "},"º":{"ha":1389,"x_min":0,"x_max":1215,"o":"m 521 868 l 521 694 l 694 694 l 694 868 l 521 868 m 521 174 l 694 174 l 694 521 l 521 521 l 521 174 m 347 0 l 521 0 l 521 174 l 347 174 l 347 0 m 1215 1215 l 1215 -174 l 0 -174 l 0 1215 l 1215 1215 z "},"Ω":{"ha":1389,"x_min":0,"x_max":1215,"o":"m 0 1215 l 694 1215 l 694 1042 l 521 1042 l 521 868 l 347 868 l 347 694 l 174 694 l 174 521 l 347 521 l 347 347 l 521 347 l 521 174 l 694 174 l 694 0 l 868 0 l 868 174 l 694 174 l 694 347 l 521 347 l 521 521 l 347 521 l 347 694 l 521 694 l 521 868 l 694 868 l 694 1042 l 868 1042 l 868 1215 l 1215 1215 l 1215 -174 l 0 -174 l 0 1215 z "},"æ":{"ha":1389,"x_min":0,"x_max":1215,"o":"m 174 868 l 174 694 l 1042 694 l 1042 868 l 174 868 m 174 521 l 174 347 l 1042 347 l 1042 521 l 174 521 m 1215 1215 l 1215 -174 l 0 -174 l 0 1215 l 1215 1215 z "},"ø":{"ha":1389,"x_min":0,"x_max":1215,"o":"m 0 1215 l 347 1215 l 347 1042 l 521 1042 l 521 868 l 694 868 l 694 694 l 868 694 l 868 521 l 694 521 l 694 347 l 521 347 l 521 174 l 347 174 l 347 0 l 521 0 l 521 174 l 694 174 l 694 347 l 868 347 l 868 521 l 1042 521 l 1042 694 l 868 694 l 868 868 l 694 868 l 694 1042 l 521 1042 l 521 1215 l 1215 1215 l 1215 -174 l 0 -174 l 0 1215 z "},"¿":{"ha":1389,"x_min":0,"x_max":1215,"o":"m 0 1215 l 347 1215 l 347 1042 l 174 1042 l 174 868 l 347 868 l 347 1042 l 868 1042 l 868 868 l 694 868 l 694 694 l 521 694 l 521 347 l 694 347 l 694 694 l 868 694 l 868 868 l 1042 868 l 1042 1042 l 868 1042 l 868 1215 l 1215 1215 l 1215 -174 l 0 -174 l 0 1215 m 521 0 l 694 0 l 694 174 l 521 174 l 521 0 z "},"¡":{"ha":1389,"x_min":0,"x_max":1215,"o":"m 0 1215 l 347 1215 l 347 1042 l 174 1042 l 174 174 l 347 174 l 347 0 l 1042 0 l 1042 174 l 347 174 l 347 1042 l 868 1042 l 868 694 l 694 694 l 694 868 l 521 868 l 521 347 l 868 347 l 868 521 l 1042 521 l 1042 1042 l 868 1042 l 868 1215 l 1215 1215 l 1215 -174 l 0 -174 l 0 1215 z "},"¬":{"ha":1389,"x_min":0,"x_max":1215,"o":"m 0 1215 l 521 1215 l 521 1042 l 347 1042 l 347 868 l 174 868 l 174 0 l 347 0 l 347 347 l 868 347 l 868 0 l 1042 0 l 1042 868 l 868 868 l 868 1042 l 694 1042 l 694 1215 l 1215 1215 l 1215 -174 l 0 -174 l 0 1215 m 347 521 l 347 868 l 521 868 l 521 1042 l 694 1042 l 694 868 l 868 868 l 868 521 l 347 521 z "},"√":{"ha":1389,"x_min":0,"x_max":1215,"o":"m 0 1215 l 174 1215 l 174 0 l 868 0 l 868 174 l 1042 174 l 1042 521 l 868 521 l 868 694 l 1042 694 l 1042 1042 l 868 1042 l 868 1215 l 1215 1215 l 1215 -174 l 0 -174 l 0 1215 m 868 1042 l 868 694 l 347 694 l 347 1042 l 868 1042 m 868 521 l 868 174 l 347 174 l 347 521 l 868 521 z "},"ƒ":{"ha":1389,"x_min":0,"x_max":1215,"o":"m 0 1215 l 347 1215 l 347 1042 l 174 1042 l 174 174 l 347 174 l 347 0 l 868 0 l 868 174 l 1042 174 l 1042 347 l 868 347 l 868 174 l 347 174 l 347 1042 l 868 1042 l 868 868 l 1042 868 l 1042 1042 l 868 1042 l 868 1215 l 1215 1215 l 1215 -174 l 0 -174 l 0 1215 z "},"≈":{"ha":1389,"x_min":0,"x_max":1215,"o":"m 0 1215 l 174 1215 l 174 0 l 868 0 l 868 174 l 1042 174 l 1042 1042 l 868 1042 l 868 1215 l 1215 1215 l 1215 -174 l 0 -174 l 0 1215 m 868 1042 l 868 174 l 347 174 l 347 1042 l 868 1042 z "},"∆":{"ha":1389,"x_min":0,"x_max":1215,"o":"m 0 1215 l 174 1215 l 174 0 l 1042 0 l 1042 174 l 347 174 l 347 521 l 868 521 l 868 694 l 347 694 l 347 1042 l 1042 1042 l 1042 1215 l 1215 1215 l 1215 -174 l 0 -174 l 0 1215 z "},"«":{"ha":1389,"x_min":0,"x_max":1215,"o":"m 0 1215 l 174 1215 l 174 0 l 347 0 l 347 521 l 868 521 l 868 694 l 347 694 l 347 1042 l 1042 1042 l 1042 1215 l 1215 1215 l 1215 -174 l 0 -174 l 0 1215 z "},"»":{"ha":1389,"x_min":0,"x_max":1215,"o":"m 0 1215 l 347 1215 l 347 1042 l 174 1042 l 174 174 l 347 174 l 347 0 l 1042 0 l 1042 521 l 694 521 l 694 347 l 868 347 l 868 174 l 347 174 l 347 1042 l 1042 1042 l 1042 1215 l 1215 1215 l 1215 -174 l 0 -174 l 0 1215 z "},"…":{"ha":1389,"x_min":0,"x_max":1215,"o":"m 0 1215 l 174 1215 l 174 0 l 347 0 l 347 521 l 868 521 l 868 0 l 1042 0 l 1042 1215 l 1215 1215 l 1215 -174 l 0 -174 l 0 1215 m 868 1215 l 868 694 l 347 694 l 347 1215 l 868 1215 z "},"À":{"ha":1389,"x_min":0,"x_max":1215,"o":"m 0 1215 l 347 1215 l 347 1042 l 521 1042 l 521 174 l 347 174 l 347 0 l 868 0 l 868 174 l 694 174 l 694 1042 l 868 1042 l 868 1215 l 1215 1215 l 1215 -174 l 0 -174 l 0 1215 z "},"Ã":{"ha":1389,"x_min":0,"x_max":1215,"o":"m 0 1215 l 868 1215 l 868 174 l 347 174 l 347 347 l 174 347 l 174 174 l 347 174 l 347 0 l 868 0 l 868 174 l 1042 174 l 1042 1215 l 1215 1215 l 1215 -174 l 0 -174 l 0 1215 z "},"Õ":{"ha":1389,"x_min":0,"x_max":1215,"o":"m 0 1215 l 174 1215 l 174 0 l 347 0 l 347 521 l 521 521 l 521 347 l 694 347 l 694 174 l 868 174 l 868 0 l 1042 0 l 1042 174 l 868 174 l 868 347 l 694 347 l 694 521 l 521 521 l 521 694 l 694 694 l 694 868 l 868 868 l 868 1042 l 1042 1042 l 1042 1215 l 1215 1215 l 1215 -174 l 0 -174 l 0 1215 m 347 694 l 347 1215 l 868 1215 l 868 1042 l 694 1042 l 694 868 l 521 868 l 521 694 l 347 694 z "},"Œ":{"ha":1389,"x_min":0,"x_max":1215,"o":"m 0 1215 l 174 1215 l 174 0 l 1042 0 l 1042 174 l 347 174 l 347 1215 l 1215 1215 l 1215 -174 l 0 -174 l 0 1215 z "},"œ":{"ha":1389,"x_min":0,"x_max":1215,"o":"m 0 1215 l 174 1215 l 174 0 l 347 0 l 347 868 l 521 868 l 521 521 l 694 521 l 694 868 l 868 868 l 868 0 l 1042 0 l 1042 1215 l 1215 1215 l 1215 -174 l 0 -174 l 0 1215 m 347 1215 l 868 1215 l 868 1042 l 694 1042 l 694 868 l 521 868 l 521 1042 l 347 1042 l 347 1215 z "},"–":{"ha":1389,"x_min":0,"x_max":1215,"o":"m 0 1215 l 174 1215 l 174 0 l 347 0 l 347 694 l 521 694 l 521 521 l 694 521 l 694 347 l 868 347 l 868 0 l 1042 0 l 1042 1215 l 1215 1215 l 1215 -174 l 0 -174 l 0 1215 m 347 868 l 347 1215 l 868 1215 l 868 521 l 694 521 l 694 694 l 521 694 l 521 868 l 347 868 z "},"—":{"ha":1389,"x_min":0,"x_max":1215,"o":"m 0 1215 l 347 1215 l 347 1042 l 174 1042 l 174 174 l 347 174 l 347 0 l 868 0 l 868 174 l 1042 174 l 1042 1042 l 868 1042 l 868 1215 l 1215 1215 l 1215 -174 l 0 -174 l 0 1215 m 868 1042 l 868 174 l 347 174 l 347 1042 l 868 1042 z "},"“":{"ha":1389,"x_min":0,"x_max":1215,"o":"m 0 1215 l 174 1215 l 174 0 l 347 0 l 347 521 l 868 521 l 868 694 l 1042 694 l 1042 1042 l 868 1042 l 868 1215 l 1215 1215 l 1215 -174 l 0 -174 l 0 1215 m 868 1042 l 868 694 l 347 694 l 347 1042 l 868 1042 z "},"”":{"ha":1389,"x_min":0,"x_max":1215,"o":"m 0 1215 l 347 1215 l 347 1042 l 174 1042 l 174 174 l 347 174 l 347 0 l 694 0 l 694 174 l 868 174 l 868 0 l 1042 0 l 1042 174 l 868 174 l 868 347 l 1042 347 l 1042 1042 l 868 1042 l 868 1215 l 1215 1215 l 1215 -174 l 0 -174 l 0 1215 m 347 174 l 347 1042 l 868 1042 l 868 347 l 694 347 l 694 521 l 521 521 l 521 347 l 694 347 l 694 174 l 347 174 z "},"‘":{"ha":1389,"x_min":0,"x_max":1215,"o":"m 0 1215 l 174 1215 l 174 0 l 347 0 l 347 521 l 521 521 l 521 347 l 694 347 l 694 174 l 868 174 l 868 0 l 1042 0 l 1042 174 l 868 174 l 868 347 l 694 347 l 694 521 l 868 521 l 868 694 l 1042 694 l 1042 1042 l 868 1042 l 868 1215 l 1215 1215 l 1215 -174 l 0 -174 l 0 1215 m 868 1042 l 868 694 l 347 694 l 347 1042 l 868 1042 z "},"’":{"ha":1389,"x_min":0,"x_max":1215,"o":"m 0 1215 l 347 1215 l 347 1042 l 174 1042 l 174 694 l 347 694 l 347 521 l 868 521 l 868 174 l 347 174 l 347 347 l 174 347 l 174 174 l 347 174 l 347 0 l 868 0 l 868 174 l 1042 174 l 1042 521 l 868 521 l 868 694 l 347 694 l 347 1042 l 868 1042 l 868 868 l 1042 868 l 1042 1042 l 868 1042 l 868 1215 l 1215 1215 l 1215 -174 l 0 -174 l 0 1215 z "},"÷":{"ha":1389,"x_min":0,"x_max":1215,"o":"m 0 1215 l 174 1215 l 174 1042 l 521 1042 l 521 0 l 694 0 l 694 1042 l 1042 1042 l 1042 1215 l 1215 1215 l 1215 -174 l 0 -174 l 0 1215 z "},"◊":{"ha":1389,"x_min":0,"x_max":1215,"o":"m 0 1215 l 174 1215 l 174 174 l 347 174 l 347 0 l 868 0 l 868 174 l 1042 174 l 1042 1215 l 1215 1215 l 1215 -174 l 0 -174 l 0 1215 m 868 1215 l 868 174 l 347 174 l 347 1215 l 868 1215 z "},"ÿ":{"ha":1389,"x_min":0,"x_max":1215,"o":"m 0 1215 l 174 1215 l 174 347 l 347 347 l 347 174 l 521 174 l 521 0 l 694 0 l 694 174 l 868 174 l 868 347 l 1042 347 l 1042 1215 l 1215 1215 l 1215 -174 l 0 -174 l 0 1215 m 347 347 l 347 1215 l 868 1215 l 868 347 l 694 347 l 694 174 l 521 174 l 521 347 l 347 347 z "},"Ÿ":{"ha":1389,"x_min":0,"x_max":1215,"o":"m 0 1215 l 174 1215 l 174 0 l 347 0 l 347 174 l 521 174 l 521 347 l 694 347 l 694 174 l 868 174 l 868 0 l 1042 0 l 1042 1215 l 1215 1215 l 1215 -174 l 0 -174 l 0 1215 m 347 347 l 347 1215 l 868 1215 l 868 347 l 694 347 l 694 694 l 521 694 l 521 347 l 347 347 z "},"⁄":{"ha":1389,"x_min":0,"x_max":1215,"o":"m 0 1215 l 174 1215 l 174 868 l 347 868 l 347 694 l 521 694 l 521 521 l 347 521 l 347 347 l 174 347 l 174 0 l 347 0 l 347 347 l 521 347 l 521 521 l 694 521 l 694 347 l 868 347 l 868 0 l 1042 0 l 1042 347 l 868 347 l 868 521 l 694 521 l 694 694 l 868 694 l 868 868 l 1042 868 l 1042 1215 l 1215 1215 l 1215 -174 l 0 -174 l 0 1215 m 347 1215 l 868 1215 l 868 868 l 694 868 l 694 694 l 521 694 l 521 868 l 347 868 l 347 1215 z "},"€":{"ha":1389,"x_min":0,"x_max":1215,"o":"m 0 1215 l 174 1215 l 174 868 l 347 868 l 347 694 l 521 694 l 521 0 l 694 0 l 694 694 l 868 694 l 868 868 l 1042 868 l 1042 1215 l 1215 1215 l 1215 -174 l 0 -174 l 0 1215 m 347 1215 l 868 1215 l 868 868 l 694 868 l 694 694 l 521 694 l 521 868 l 347 868 l 347 1215 z "},"‹":{"ha":1389,"x_min":0,"x_max":1215,"o":"m 0 1215 l 174 1215 l 174 1042 l 868 1042 l 868 868 l 694 868 l 694 694 l 521 694 l 521 521 l 347 521 l 347 347 l 174 347 l 174 0 l 1042 0 l 1042 174 l 347 174 l 347 347 l 521 347 l 521 521 l 694 521 l 694 694 l 868 694 l 868 868 l 1042 868 l 1042 1215 l 1215 1215 l 1215 -174 l 0 -174 l 0 1215 z "},"›":{"ha":1389,"x_min":0,"x_max":1215,"o":"m 0 1215 l 174 1215 l 174 0 l 1042 0 l 1042 174 l 521 174 l 521 1042 l 1042 1042 l 1042 1215 l 1215 1215 l 1215 -174 l 0 -174 l 0 1215 z "},"":{"ha":1389,"x_min":0,"x_max":1215,"o":"m 174 1042 l 174 868 l 347 868 l 347 694 l 521 694 l 521 521 l 694 521 l 694 347 l 868 347 l 868 174 l 1042 174 l 1042 347 l 868 347 l 868 521 l 694 521 l 694 694 l 521 694 l 521 868 l 347 868 l 347 1042 l 174 1042 m 1215 1215 l 1215 -174 l 0 -174 l 0 1215 l 1215 1215 z "},"":{"ha":1389,"x_min":0,"x_max":1215,"o":"m 0 1215 l 174 1215 l 174 1042 l 694 1042 l 694 174 l 174 174 l 174 0 l 1042 0 l 1042 1215 l 1215 1215 l 1215 -174 l 0 -174 l 0 1215 z "},"‡":{"ha":1389,"x_min":0,"x_max":1215,"o":"m 174 347 l 347 347 l 347 521 l 521 521 l 521 694 l 694 694 l 694 521 l 868 521 l 868 347 l 1042 347 l 1042 521 l 868 521 l 868 694 l 694 694 l 694 868 l 521 868 l 521 694 l 347 694 l 347 521 l 174 521 l 174 347 m 1215 1215 l 1215 -174 l 0 -174 l 0 1215 l 1215 1215 z "},"·":{"ha":1389,"x_min":0,"x_max":1215,"o":"m 1215 1215 l 1215 0 l 0 0 l 0 1215 l 1215 1215 z "},"‚":{"ha":1389,"x_min":0,"x_max":1215,"o":"m 0 1215 l 347 1215 l 347 1042 l 521 1042 l 521 868 l 694 868 l 694 694 l 868 694 l 868 868 l 694 868 l 694 1042 l 521 1042 l 521 1215 l 1215 1215 l 1215 -174 l 0 -174 l 0 1215 z "},"„":{"ha":1389,"x_min":0,"x_max":1215,"o":"m 347 0 l 1042 0 l 1042 694 l 868 694 l 868 868 l 347 868 l 347 694 l 868 694 l 868 521 l 347 521 l 347 347 l 174 347 l 174 174 l 347 174 l 347 0 m 347 174 l 347 347 l 868 347 l 868 174 l 347 174 m 1215 1215 l 1215 -174 l 0 -174 l 0 1215 l 1215 1215 z "},"‰":{"ha":1389,"x_min":0,"x_max":1215,"o":"m 0 1215 l 174 1215 l 174 0 l 868 0 l 868 174 l 1042 174 l 1042 694 l 868 694 l 868 868 l 347 868 l 347 1215 l 1215 1215 l 1215 -174 l 0 -174 l 0 1215 m 868 694 l 868 174 l 347 174 l 347 694 l 868 694 z "},"Â":{"ha":1389,"x_min":0,"x_max":1215,"o":"m 347 0 l 1042 0 l 1042 174 l 347 174 l 347 0 m 174 174 l 347 174 l 347 694 l 174 694 l 174 174 m 347 694 l 1042 694 l 1042 868 l 347 868 l 347 694 m 1215 1215 l 1215 -174 l 0 -174 l 0 1215 l 1215 1215 z "},"Ê":{"ha":1389,"x_min":0,"x_max":1215,"o":"m 0 1215 l 868 1215 l 868 868 l 347 868 l 347 694 l 174 694 l 174 174 l 347 174 l 347 0 l 1042 0 l 1042 1215 l 1215 1215 l 1215 -174 l 0 -174 l 0 1215 m 868 694 l 868 174 l 347 174 l 347 694 l 868 694 z "},"Á":{"ha":1389,"x_min":0,"x_max":1215,"o":"m 347 0 l 1042 0 l 1042 174 l 347 174 l 347 0 m 174 174 l 347 174 l 347 347 l 1042 347 l 1042 694 l 868 694 l 868 521 l 347 521 l 347 694 l 174 694 l 174 174 m 347 694 l 868 694 l 868 868 l 347 868 l 347 694 m 1215 1215 l 1215 -174 l 0 -174 l 0 1215 l 1215 1215 z "},"Ë":{"ha":1389,"x_min":0,"x_max":1215,"o":"m 0 1215 l 521 1215 l 521 1042 l 347 1042 l 347 694 l 174 694 l 174 521 l 347 521 l 347 0 l 521 0 l 521 521 l 868 521 l 868 694 l 521 694 l 521 1042 l 868 1042 l 868 868 l 1042 868 l 1042 1042 l 868 1042 l 868 1215 l 1215 1215 l 1215 -174 l 0 -174 l 0 1215 z "},"È":{"ha":1389,"x_min":0,"x_max":1215,"o":"m 347 -174 l 868 -174 l 868 0 l 347 0 l 347 -174 m 868 0 l 1042 0 l 1042 694 l 868 694 l 868 347 l 347 347 l 347 174 l 868 174 l 868 0 m 347 694 l 868 694 l 868 868 l 347 868 l 347 694 m 174 347 l 347 347 l 347 694 l 174 694 l 174 347 m 1215 1215 l 1215 -174 l 0 -174 l 0 1215 l 1215 1215 z "},"Í":{"ha":1389,"x_min":0,"x_max":1215,"o":"m 0 1215 l 174 1215 l 174 0 l 347 0 l 347 694 l 868 694 l 868 0 l 1042 0 l 1042 694 l 868 694 l 868 868 l 347 868 l 347 1215 l 1215 1215 l 1215 -174 l 0 -174 l 0 1215 z "},"Î":{"ha":1389,"x_min":0,"x_max":1215,"o":"m 694 868 l 347 868 l 347 694 l 521 694 l 521 174 l 347 174 l 347 0 l 868 0 l 868 174 l 694 174 l 694 868 m 0 1215 l 521 1215 l 521 1042 l 694 1042 l 694 1215 l 1215 1215 l 1215 -174 l 0 -174 l 0 1215 z "},"Ï":{"ha":1389,"x_min":0,"x_max":1215,"o":"m 0 1215 l 694 1215 l 694 1042 l 868 1042 l 868 1215 l 1215 1215 l 1215 -174 l 694 -174 l 694 0 l 868 0 l 868 868 l 521 868 l 521 694 l 694 694 l 694 0 l 347 0 l 347 174 l 174 174 l 174 0 l 347 0 l 347 -174 l 0 -174 l 0 1215 z "},"Ì":{"ha":1389,"x_min":0,"x_max":1215,"o":"m 0 1215 l 174 1215 l 174 0 l 347 0 l 347 347 l 694 347 l 694 174 l 868 174 l 868 0 l 1042 0 l 1042 174 l 868 174 l 868 347 l 694 347 l 694 521 l 868 521 l 868 694 l 1042 694 l 1042 868 l 868 868 l 868 694 l 694 694 l 694 521 l 347 521 l 347 1215 l 1215 1215 l 1215 -174 l 0 -174 l 0 1215 z "},"Ó":{"ha":1389,"x_min":0,"x_max":1215,"o":"m 0 1215 l 347 1215 l 347 1042 l 521 1042 l 521 174 l 347 174 l 347 0 l 868 0 l 868 174 l 694 174 l 694 1215 l 1215 1215 l 1215 -174 l 0 -174 l 0 1215 z "},"Ô":{"ha":1389,"x_min":0,"x_max":1215,"o":"m 174 0 l 347 0 l 347 694 l 521 694 l 521 174 l 694 174 l 694 694 l 868 694 l 868 0 l 1042 0 l 1042 868 l 694 868 l 694 694 l 521 694 l 521 868 l 174 868 l 174 0 m 1215 1215 l 1215 -174 l 0 -174 l 0 1215 l 1215 1215 z "},"Ò":{"ha":1389,"x_min":0,"x_max":1215,"o":"m 174 0 l 347 0 l 347 694 l 868 694 l 868 0 l 1042 0 l 1042 694 l 868 694 l 868 868 l 174 868 l 174 0 m 1215 1215 l 1215 -174 l 0 -174 l 0 1215 l 1215 1215 z "},"Ú":{"ha":1389,"x_min":0,"x_max":1215,"o":"m 174 174 l 347 174 l 347 0 l 868 0 l 868 174 l 1042 174 l 1042 694 l 868 694 l 868 868 l 347 868 l 347 694 l 174 694 l 174 174 m 868 694 l 868 174 l 347 174 l 347 694 l 868 694 m 1215 1215 l 1215 -174 l 0 -174 l 0 1215 l 1215 1215 z "},"Û":{"ha":1389,"x_min":0,"x_max":1215,"o":"m 0 1215 l 1215 1215 l 1215 -174 l 347 -174 l 347 174 l 868 174 l 868 347 l 1042 347 l 1042 694 l 868 694 l 868 868 l 174 868 l 174 -174 l 0 -174 l 0 1215 m 868 694 l 868 347 l 347 347 l 347 694 l 868 694 z "},"Ù":{"ha":1389,"x_min":0,"x_max":1215,"o":"m 0 1215 l 1215 1215 l 1215 -174 l 1042 -174 l 1042 868 l 347 868 l 347 694 l 174 694 l 174 347 l 347 347 l 347 174 l 868 174 l 868 -174 l 0 -174 l 0 1215 m 868 694 l 868 347 l 347 347 l 347 694 l 868 694 z "},"ı":{"ha":1389,"x_min":0,"x_max":1215,"o":"m 174 0 l 347 0 l 347 521 l 521 521 l 521 694 l 1042 694 l 1042 868 l 521 868 l 521 694 l 347 694 l 347 868 l 174 868 l 174 0 m 1215 1215 l 1215 -174 l 0 -174 l 0 1215 l 1215 1215 z "},"ˆ":{"ha":1389,"x_min":0,"x_max":1215,"o":"m 174 0 l 868 0 l 868 174 l 1042 174 l 1042 347 l 868 347 l 868 521 l 347 521 l 347 694 l 1042 694 l 1042 868 l 347 868 l 347 694 l 174 694 l 174 521 l 347 521 l 347 347 l 868 347 l 868 174 l 174 174 l 174 0 m 1215 1215 l 1215 -174 l 0 -174 l 0 1215 l 1215 1215 z "},"˜":{"ha":1389,"x_min":0,"x_max":1215,"o":"m 0 1215 l 347 1215 l 347 868 l 174 868 l 174 694 l 347 694 l 347 174 l 521 174 l 521 0 l 868 0 l 868 174 l 1042 174 l 1042 347 l 868 347 l 868 174 l 521 174 l 521 694 l 868 694 l 868 868 l 521 868 l 521 1215 l 1215 1215 l 1215 -174 l 0 -174 l 0 1215 z "},"ˉ":{"ha":1389,"x_min":0,"x_max":1215,"o":"m 174 174 l 347 174 l 347 0 l 694 0 l 694 174 l 868 174 l 868 0 l 1042 0 l 1042 868 l 868 868 l 868 347 l 694 347 l 694 174 l 347 174 l 347 868 l 174 868 l 174 174 m 1215 1215 l 1215 -174 l 0 -174 l 0 1215 l 1215 1215 z "},"˘":{"ha":1389,"x_min":0,"x_max":1215,"o":"m 174 868 l 174 347 l 347 347 l 347 174 l 521 174 l 521 0 l 694 0 l 694 174 l 868 174 l 868 347 l 1042 347 l 1042 868 l 868 868 l 868 347 l 694 347 l 694 174 l 521 174 l 521 347 l 347 347 l 347 868 l 174 868 m 1215 1215 l 1215 -174 l 0 -174 l 0 1215 l 1215 1215 z "},"˙":{"ha":1389,"x_min":0,"x_max":1215,"o":"m 174 0 l 521 0 l 521 174 l 694 174 l 694 0 l 1042 0 l 1042 868 l 868 868 l 868 174 l 694 174 l 694 521 l 521 521 l 521 174 l 347 174 l 347 868 l 174 868 l 174 0 m 1215 1215 l 1215 -174 l 0 -174 l 0 1215 l 1215 1215 z "},"˚":{"ha":1389,"x_min":0,"x_max":1215,"o":"m 174 0 l 347 0 l 347 174 l 521 174 l 521 347 l 694 347 l 694 174 l 868 174 l 868 0 l 1042 0 l 1042 174 l 868 174 l 868 347 l 694 347 l 694 521 l 868 521 l 868 694 l 1042 694 l 1042 868 l 868 868 l 868 694 l 694 694 l 694 521 l 521 521 l 521 694 l 347 694 l 347 868 l 174 868 l 174 694 l 347 694 l 347 521 l 521 521 l 521 347 l 347 347 l 347 174 l 174 174 l 174 0 m 1215 1215 l 1215 -174 l 0 -174 l 0 1215 l 1215 1215 z "},"¸":{"ha":1389,"x_min":0,"x_max":1215,"o":"m 347 0 l 347 -174 l 0 -174 l 0 1215 l 1215 1215 l 1215 -174 l 868 -174 l 868 0 l 1042 0 l 1042 868 l 868 868 l 868 347 l 347 347 l 347 868 l 174 868 l 174 347 l 347 347 l 347 174 l 868 174 l 868 0 l 347 0 z "},"˝":{"ha":1389,"x_min":0,"x_max":1215,"o":"m 174 0 l 1042 0 l 1042 174 l 521 174 l 521 347 l 694 347 l 694 521 l 868 521 l 868 694 l 1042 694 l 1042 868 l 174 868 l 174 694 l 694 694 l 694 521 l 521 521 l 521 347 l 347 347 l 347 174 l 174 174 l 174 0 m 1215 1215 l 1215 -174 l 0 -174 l 0 1215 l 1215 1215 z "},"˛":{"ha":1389,"x_min":0,"x_max":1215,"o":"m 0 1215 l 521 1215 l 521 1042 l 347 1042 l 347 694 l 174 694 l 174 521 l 347 521 l 347 174 l 521 174 l 521 0 l 1042 0 l 1042 174 l 694 174 l 694 521 l 521 521 l 521 694 l 694 694 l 694 1042 l 1042 1042 l 1042 1215 l 1215 1215 l 1215 -174 l 0 -174 l 0 1215 z "},"ˇ":{"ha":1389,"x_min":0,"x_max":1215,"o":"m 521 1215 l 521 -174 l 0 -174 l 0 1215 l 521 1215 m 1215 1215 l 1215 -174 l 694 -174 l 694 1215 l 1215 1215 z "},"Ł":{"ha":1389,"x_min":0,"x_max":1215,"o":"m 0 1215 l 174 1215 l 174 1042 l 521 1042 l 521 694 l 694 694 l 694 521 l 521 521 l 521 174 l 174 174 l 174 0 l 694 0 l 694 174 l 868 174 l 868 521 l 1042 521 l 1042 694 l 868 694 l 868 1042 l 694 1042 l 694 1215 l 1215 1215 l 1215 -174 l 0 -174 l 0 1215 z "},"ł":{"ha":1389,"x_min":0,"x_max":1215,"o":"m 0 1215 l 347 1215 l 347 1042 l 174 1042 l 174 868 l 347 868 l 347 1042 l 521 1042 l 521 868 l 868 868 l 868 1042 l 1042 1042 l 1042 1215 l 1215 1215 l 1215 -174 l 0 -174 l 0 1215 m 868 1215 l 868 1042 l 694 1042 l 694 1215 l 868 1215 z "},"Š":{"ha":1389,"x_min":0,"x_max":1215,"o":"m 174 868 l 347 868 l 347 1042 l 174 1042 l 174 868 m 521 868 l 694 868 l 694 1042 l 521 1042 l 521 868 m 868 868 l 1042 868 l 1042 1042 l 868 1042 l 868 868 m 347 694 l 521 694 l 521 868 l 347 868 l 347 694 m 694 694 l 868 694 l 868 868 l 694 868 l 694 694 m 174 521 l 347 521 l 347 694 l 174 694 l 174 521 m 521 521 l 694 521 l 694 694 l 521 694 l 521 521 m 868 521 l 1042 521 l 1042 694 l 868 694 l 868 521 m 347 347 l 521 347 l 521 521 l 347 521 l 347 347 m 694 347 l 868 347 l 868 521 l 694 521 l 694 347 m 174 174 l 347 174 l 347 347 l 174 347 l 174 174 m 521 174 l 694 174 l 694 347 l 521 347 l 521 174 m 868 174 l 1042 174 l 1042 347 l 868 347 l 868 174 m 1215 1215 l 1215 -174 l 0 -174 l 0 1215 l 1215 1215 z "}}}
